# xmcd CD database file
# Copyright (C) 1997 Ti Kan
# 
# Track frame offsets:
#     182
#     16677
#     28102
#     42427
#     56302
#     70777
#     82602
#     97427
#     111777
#     125142
#     138852
#     149782
#     163402
#     177965
#     189915
# 
# Disc length: 2669 seconds
# 
# Revision: 1
# Processed by: cddbd v1.4b41PL1 Copyright (c) Steve Scherf et al.
# Submitted via: DiscPlay 4.0.4
# 
DISCID=d20a6b0f
DTITLE=Bob Fleming - Bob Fleming Interpreta Boleros
DYEAR=1900
DGENRE=
TTITLE0=Frio En El Alma/Aquellos Ojos Verdes
TTITLE1=Una Mujer/Desesperadamente
TTITLE2=Magic Is The Moonlight/Tres Palabras
TTITLE3=Adios/Se Muy Bien Que Viendras
TTITLE4=Solamente Una Vez/Frenesi
TTITLE5=Maria Elena/La Violetera
TTITLE6=Quiereme Mucho/Cubanacan
TTITLE7=Torna A Surriento/O Sole Mio
TTITLE8=Poinciana/Marta
TTITLE9=Stars In Your Eyes/Orquids In The Moonlight
TTITLE10=Quero Beijar-te As M os/Nostalgias
TTITLE11=Porque Ya No Me Quieres/Olhos Castanhos
TTITLE12=Misty
TTITLE13=Cancion De Amor Cubano
TTITLE14=Nocturnal
EXTD=
EXTT0=
EXTT1=
EXTT2=
EXTT3=
EXTT4=
EXTT5=
EXTT6=
EXTT7=
EXTT8=
EXTT9=
EXTT10=
EXTT11=
EXTT12=
EXTT13=
EXTT14=
PLAYORDER=
